<svg width="108" height="36" viewBox="0 0 108 36" fill="none" xmlns="http://www.w3.org/2000/svg">
<path d="M-0.00016284 33.1426C-0.00016284 34.6154 1.19374 35.8093 2.6665 35.8093C4.13926 35.8093 5.33317 34.6154 5.33317 33.1426C5.33317 31.6699 4.13926 30.476 2.6665 30.476C1.19374 30.476 -0.00016284 31.6699 -0.00016284 33.1426ZM106.604 33.6388C106.878 33.6731 107.128 33.4789 107.163 33.2049L107.723 28.7399C107.757 28.4659 107.563 28.2159 107.289 28.1815C107.015 28.1472 106.765 28.3414 106.73 28.6154L106.233 32.5843L102.264 32.0864C101.99 32.0521 101.74 32.2463 101.705 32.5203C101.671 32.7943 101.865 33.0443 102.139 33.0786L106.604 33.6388ZM2.6665 33.1426L3.0924 33.4046C4.1486 31.6872 5.33423 29.9214 6.64177 28.142L6.23885 27.8459L5.83594 27.5499C4.51239 29.351 3.31139 31.1396 2.2406 32.8807L2.6665 33.1426ZM14.5865 18.1568L14.9387 18.5117C17.8851 15.5881 21.144 12.8135 24.6771 10.3609L24.3919 9.95012L24.1068 9.53939C20.5207 12.0289 17.2174 14.8419 14.2344 17.8019L14.5865 18.1568ZM35.5849 3.79533L35.7751 4.25771C39.6357 2.6689 43.712 1.53036 47.9714 0.992123L47.9087 0.496068L47.846 1.26362e-05C43.4908 0.550363 39.3289 1.7138 35.3946 3.33296L35.5849 3.79533ZM60.6633 0.718852L60.5838 1.21248C64.5096 1.84513 68.553 3.02437 72.6936 4.84825L72.8951 4.39067L73.0967 3.93309C68.8811 2.07618 64.7559 0.87191 60.7429 0.225221L60.6633 0.718852ZM83.9689 10.7093L83.6815 11.1184C86.9163 13.3911 90.1968 16.0783 93.5138 19.2224L93.8577 18.8595L94.2017 18.4966C90.8523 15.3219 87.5343 12.6031 84.2563 10.3001L83.9689 10.7093ZM102.624 28.1642L102.243 28.488C103.582 30.0633 104.925 31.7163 106.272 33.4494L106.667 33.1426L107.061 32.8358C105.706 31.0916 104.354 29.4273 103.005 27.8405L102.624 28.1642Z" fill="white"/>
</svg>
