<svg width="108" height="36" viewBox="0 0 108 36" fill="none" xmlns="http://www.w3.org/2000/svg">
<path d="M8.13007e-05 2.66669C8.13007e-05 1.19393 1.19399 1.90735e-05 2.66675 1.90735e-05C4.13951 1.90735e-05 5.33341 1.19393 5.33341 2.66669C5.33341 4.13945 4.13951 5.33335 2.66675 5.33335C1.19399 5.33335 8.13007e-05 4.13945 8.13007e-05 2.66669ZM106.605 2.17057C106.879 2.1362 107.128 2.33046 107.163 2.60445L107.723 7.06946C107.757 7.34345 107.563 7.59344 107.289 7.62781C107.015 7.66218 106.765 7.46792 106.731 7.19393L106.233 3.22503L102.264 3.7229C101.99 3.75727 101.74 3.56302 101.706 3.28902C101.671 3.01503 101.866 2.76505 102.14 2.73068L106.605 2.17057ZM2.66675 2.66669L3.09265 2.40475C4.14884 4.1221 5.33448 5.88796 6.64201 7.66731L6.2391 7.96339L5.83618 8.25946C4.51263 6.45831 3.31163 4.66969 2.24085 2.92862L2.66675 2.66669ZM14.5868 17.6525L14.939 17.2976C17.8853 20.2212 21.1442 22.9958 24.6773 25.4485L24.3922 25.8592L24.107 26.2699C20.5209 23.7804 17.2176 20.9674 14.2346 18.0074L14.5868 17.6525ZM35.5851 32.014L35.7754 31.5516C39.6359 33.1404 43.7122 34.279 47.9716 34.8172L47.9089 35.3133L47.8463 35.8093C43.491 35.259 39.3291 34.0955 35.3948 32.4764L35.5851 32.014ZM60.6636 35.0905L60.584 34.5968C64.5099 33.9642 68.5532 32.785 72.6938 30.9611L72.8954 31.4187L73.0969 31.8762C68.8813 33.7332 64.7561 34.9374 60.7431 35.5841L60.6636 35.0905ZM83.9691 25.1001L83.6817 24.6909C86.9165 22.4183 90.197 19.731 93.514 16.5869L93.858 16.9498L94.2019 17.3127C90.8526 20.4875 87.5345 23.2062 84.2566 25.5092L83.9691 25.1001ZM102.625 7.64512L102.244 7.32137C103.582 5.74602 104.925 4.09306 106.272 2.35989L106.667 2.66669L107.062 2.97348C105.706 4.71773 104.354 6.38201 103.006 7.96888L102.625 7.64512Z" fill="white"/>
</svg>
