<svg width="50" height="50" viewBox="0 0 50 50" fill="none" xmlns="http://www.w3.org/2000/svg">
<g clip-path="url(#clip0_303_466)">
<rect x="7.5" y="9.16667" width="36.6667" height="36.6667" fill="black"/>
<path fill-rule="evenodd" clip-rule="evenodd" d="M11.9617 0C5.35544 0 0 5.35544 0 11.9617V38.0383C0 44.6444 5.35544 50 11.9617 50H38.0383C44.6444 50 50 44.6444 50 38.0383V11.9617C50 5.35544 44.6444 0 38.0383 0H11.9617ZM24.6112 38.8756C25.7225 38.8756 26.7389 38.1244 26.8191 37.0404C28.1024 38.1995 29.8031 38.9055 31.6687 38.9055H31.8481C35.7458 38.9055 38.9055 35.7458 38.9055 31.8481V28.5885C38.9055 24.6908 35.7458 21.5311 31.8481 21.5311H31.6687C29.4798 21.5311 27.5179 22.5029 26.1908 24.0386C25.6308 23.028 24.8272 22.4968 24.1776 22.1441C23.7237 21.8977 23.2213 21.7252 22.6435 21.6097C22.0428 21.4868 21.3004 21.4115 20.3648 21.4115C20.3304 21.4115 20.2963 21.4116 20.2624 21.412C20.2103 21.4116 20.1578 21.4115 20.1048 21.4115C18.9146 21.4115 17.9964 21.6629 17.3208 21.9674C16.3953 22.3658 15.9563 22.8551 15.8472 22.9902V13.8438C15.8472 13.8438 15.8023 11.9617 13.4409 11.9617C11.0795 11.9617 11.0646 13.8438 11.0646 13.8438V36.913C11.0646 36.913 11.0646 38.8756 13.4409 38.8756C16.0116 38.8756 15.8472 36.913 15.8472 36.913V28.741C15.9056 28.3466 16.0672 27.7994 16.4999 27.3441C16.8783 26.9528 17.4674 26.6177 18.3842 26.5223C18.5749 26.5032 18.7798 26.4943 18.9999 26.4973C19.2181 26.5003 19.4207 26.5144 19.6089 26.5383C20.6891 26.6833 21.2893 27.1723 21.6227 27.6709C22.0817 28.4071 22.0475 29.3024 22.0297 29.7699C22.0269 29.8437 22.0245 29.9067 22.0245 29.9569C22.0245 30.0493 22.0296 30.1385 22.0395 30.2249V36.9019C22.0395 37.7841 22.6675 38.8756 24.6112 38.8756ZM30.9533 34.7787C28.7498 34.7787 26.9524 33.0401 26.858 30.86C26.8595 30.6271 26.8607 30.4019 26.8616 30.1839C26.9883 28.1255 28.6978 26.4952 30.7883 26.4952C32.6289 26.4952 34.1208 27.9873 34.1208 29.8278V31.6112C34.1208 33.3606 32.7028 34.7787 30.9533 34.7787Z" fill="url(#paint0_linear_303_466)"/>
<mask id="mask0_303_466" style="mask-type:alpha" maskUnits="userSpaceOnUse" x="19" y="26" width="12" height="8">
<path d="M20.8433 28.3792C20.8433 28.3792 21.1073 31.9976 24.3871 31.9976C27.3216 31.9976 27.811 29.7249 28.3193 28.9025C28.5895 28.4655 29.3959 28.0502 29.3959 28.0502" stroke="black" stroke-width="2.51196" stroke-linecap="round"/>
</mask>
<g mask="url(#mask0_303_466)">
<path d="M38.1579 5.02393H12.0814C5.47507 5.02393 0.119629 10.3794 0.119629 16.9856V43.0622C0.119629 49.6685 5.47507 55.0239 12.0814 55.0239H38.1579C44.7642 55.0239 50.1196 49.6685 50.1196 43.0622V16.9856C50.1196 10.3794 44.7642 5.02393 38.1579 5.02393Z" fill="url(#paint1_linear_303_466)"/>
</g>
</g>
<defs>
<linearGradient id="paint0_linear_303_466" x1="0" y1="25" x2="50" y2="25" gradientUnits="userSpaceOnUse">
<stop stop-color="#9A83F7"/>
<stop offset="1" stop-color="#97ACF8"/>
</linearGradient>
<linearGradient id="paint1_linear_303_466" x1="0.119629" y1="30.0239" x2="50.1196" y2="30.0239" gradientUnits="userSpaceOnUse">
<stop stop-color="#9A83F7"/>
<stop offset="1" stop-color="#97ACF8"/>
</linearGradient>
<clipPath id="clip0_303_466">
<rect width="50" height="50" fill="white"/>
</clipPath>
</defs>
</svg>
