<svg width="56" height="60" viewBox="0 0 56 60" fill="none" xmlns="http://www.w3.org/2000/svg">
<path d="M45.4268 0C48.1917 3.97782 48.9822 10.1184 48.7354 14.9873C53.2062 20.1117 56 26.7054 56 33.4893C56 34.8632 55.8944 36.2128 55.6904 37.5303C54.1057 40.3878 50.5045 43.035 47.5293 44.7168C43.5624 46.9594 39.1668 47.3744 35.6777 44.6289L35.6406 44.5996L35.6006 44.5742C34.3561 43.7853 33.6161 42.2771 33.4258 40.6328C33.2328 38.963 33.6391 37.451 34.3154 36.7148L34.3838 36.6406L34.4346 36.5527C35.0641 35.4659 36.307 35.064 37.6465 35.5215C38.9856 35.9791 40.4175 37.3335 40.9971 39.7812L41.2764 40.9639L42.3564 40.3857C44.2848 39.3538 45.0943 37.4979 45.1445 35.6514C45.1937 33.8289 44.5173 31.9223 43.3662 30.5537L41.9238 31.7393C42.784 32.7622 43.3068 34.2297 43.2695 35.6016C43.2445 36.5312 42.9688 37.3718 42.4043 38.0156C41.5323 35.8059 39.9726 34.3539 38.2598 33.7686C36.2503 33.0822 34.0253 33.624 32.8574 35.5449C31.7348 36.8316 31.339 38.9183 31.5615 40.8428C31.7896 42.817 32.7004 44.9158 34.5459 46.1084C38.8437 49.4629 44.1139 48.783 48.46 46.3262C50.2923 45.2903 52.0034 43.9184 53.4639 42.3467C49.7763 52.6327 39.8486 59.9998 28.1797 60C16.5109 60 6.58209 52.6334 2.89453 42.3477C4.35458 43.919 6.06524 45.2903 7.89746 46.3262C12.2436 48.7831 17.5146 49.463 21.8125 46.1084C23.658 44.9158 24.5688 42.8169 24.7969 40.8428C25.0194 38.9184 24.6239 36.8316 23.501 35.5449C22.3335 33.6242 20.1086 33.0824 18.0996 33.7686C16.3867 34.3538 14.8261 35.8059 13.9541 38.0156C13.3899 37.3718 13.1142 36.5312 13.0889 35.6016C13.0519 34.2297 13.5751 32.7622 14.4355 31.7393L12.9922 30.5537C11.8414 31.9223 11.1647 33.8289 11.2139 35.6514C11.2641 37.4979 12.0736 39.3538 14.002 40.3857L15.0811 40.9639L15.3613 39.7812C15.9409 37.3335 17.3725 35.9791 18.7119 35.5215C20.0514 35.0639 21.2942 35.4658 21.9238 36.5527L21.9746 36.6406L22.043 36.7148C22.7193 37.451 23.1256 38.963 22.9326 40.6328C22.7427 42.277 22.0029 43.7852 20.7588 44.5742L20.7178 44.5996L20.6807 44.6289C17.1916 47.3744 12.7963 46.9594 8.8291 44.7168C5.8542 43.0349 1.89427 40.3878 0.30957 37.5303C0.105633 36.2128 4.06804e-06 34.8631 0 33.4893C0 26.6195 2.9426 19.9434 7.59668 14.792C7.38063 9.9551 8.18695 3.92481 10.915 0C11.4644 1.84684 14.5166 5.31797 17.415 7.51855C20.7825 5.9676 24.435 5.08789 28.1797 5.08789C31.9333 5.08795 35.5704 5.97329 38.9102 7.53125C41.8135 5.33133 44.8764 1.85035 45.4268 0ZM35.2822 28.873C33.5537 23.1321 29.9387 19.2059 26.8301 19.9131C24.1683 20.5191 22.675 24.3411 22.9189 29.1377C24.0188 28.4764 25.2441 27.9751 26.5684 27.6738C29.6477 26.9733 32.722 27.478 35.2822 28.873ZM16.3389 13.915C16.3373 15.3685 16.3343 18.4905 18.4023 19.3994C21.3992 20.7161 24.5836 16.544 24.5947 16.5293L16.3389 13.8027V13.915ZM31.7637 16.5293C31.7799 16.5506 34.9607 20.7149 37.9551 19.3994C40.0239 18.4907 40.0211 15.3679 40.0195 13.9141V13.8027L31.7637 16.5293Z" fill="url(#paint0_linear_166_1559)"/>
<defs>
<linearGradient id="paint0_linear_166_1559" x1="28.0001" y1="30" x2="28" y2="106.107" gradientUnits="userSpaceOnUse">
<stop stop-color="white"/>
<stop offset="1" stop-color="white" stop-opacity="0"/>
</linearGradient>
</defs>
</svg>
