<svg width="25" height="20" viewBox="0 0 25 20" fill="none" xmlns="http://www.w3.org/2000/svg">
<path d="M3.82278 19.66L0.364074 17.0205C2.00241 15.3215 3.06429 13.7438 3.54972 12.2875C4.09583 10.7705 4.36889 9.28389 4.36889 7.8276L6.64435 9.28389H0V0H9.28389V6.55334C9.28389 8.98049 8.88948 11.256 8.10065 13.3797C7.31182 15.5035 5.88586 17.5969 3.82278 19.66ZM19.1139 19.66L15.6552 17.0205C17.2935 15.3215 18.3554 13.7438 18.8408 12.2875C19.3869 10.7705 19.66 9.28389 19.66 7.8276L21.9355 9.28389H15.2911V0H24.575V6.55334C24.575 8.98049 24.1806 11.256 23.3918 13.3797C22.6029 15.5035 21.177 17.5969 19.1139 19.66Z" fill="white"/>
</svg>
